<?xml version="1.0" encoding="UTF-8"?>
<svg width="1600" height="1000" viewBox="0 0 1600 1000" fill="none" xmlns="http://www.w3.org/2000/svg">
  <rect width="1600" height="1000" fill="#f3efe6"/>
  <rect x="56" y="56" width="1488" height="888" rx="14" fill="#fbf8f1" stroke="#b6ab98" stroke-width="8"/>
  <rect x="92" y="92" width="1416" height="824" fill="#f3efe6" opacity="0.72"/><rect x="96" y="96" width="420" height="760" fill="#e7decd" opacity="0.92"/>
  
    <rect x="148" y="186" width="540" height="612" fill="#f3efe6" stroke="#b6ab98" stroke-width="4"/>
    <rect x="768" y="186" width="624" height="612" fill="#fbf8f1" stroke="#b6ab98" stroke-width="4"/>
    <line x1="846" y1="706" x2="1320" y2="706" stroke="#b6ab98" stroke-width="4"/>
    <line x1="846" y1="626" x2="1320" y2="626" stroke="#b6ab98" stroke-width="3"/>
    <line x1="846" y1="546" x2="1320" y2="546" stroke="#b6ab98" stroke-width="3"/>
    <path d="M860 676 L944 618 L1012 632 L1108 534 L1206 558 L1290 426" fill="none" stroke="#5e6852" stroke-width="14"/>
    <rect x="220" y="300" width="392" height="38" fill="#e7decd" opacity="0.85"/>
    <rect x="220" y="368" width="340" height="22" fill="#e7decd" opacity="0.6"/>
    <rect x="220" y="420" width="370" height="22" fill="#e7decd" opacity="0.6"/>
  
  <line x1="990" y1="748" x2="1326" y2="492" stroke="#5e6852" stroke-width="12"/><circle cx="1098" cy="664" r="14" fill="#8f7a55"/><circle cx="1210" cy="580" r="14" fill="#8f7a55"/>
  
    <rect x="86" y="84" width="360" height="68" fill="#f3efe6" opacity="0.88"/>
    <text x="104" y="127" fill="#1f221e" font-size="24" font-family="Arial, sans-serif" letter-spacing="4">SNAPSHOT GRAPHIC</text>
    <text x="104" y="914" fill="#58584e" font-size="21" font-family="Arial, sans-serif" letter-spacing="6">HOME</text>
  
</svg>
