<?xml version="1.0" encoding="UTF-8"?>
<svg width="1600" height="1000" viewBox="0 0 1600 1000" fill="none" xmlns="http://www.w3.org/2000/svg">
  <rect width="1600" height="1000" fill="#f3efe6"/>
  <rect x="56" y="56" width="1488" height="888" rx="14" fill="#fbf8f1" stroke="#b6ab98" stroke-width="8"/>
  <rect x="92" y="92" width="1416" height="824" fill="#f3efe6" opacity="0.72"/><rect x="96" y="96" width="420" height="760" fill="#e7decd" opacity="0.92"/>
  
    <rect x="124" y="168" width="1350" height="660" fill="#fbf8f1" stroke="#b6ab98" stroke-width="6"/>
    <rect x="124" y="168" width="1350" height="86" fill="#e7decd" opacity="0.8"/>
    <line x1="124" y1="330" x2="1474" y2="330" stroke="#b6ab98" stroke-width="3"/><line x1="124" y1="420" x2="1474" y2="420" stroke="#b6ab98" stroke-width="3"/><line x1="124" y1="510" x2="1474" y2="510" stroke="#b6ab98" stroke-width="3"/><line x1="124" y1="600" x2="1474" y2="600" stroke="#b6ab98" stroke-width="3"/><line x1="124" y1="690" x2="1474" y2="690" stroke="#b6ab98" stroke-width="3"/>
    <line x1="430" y1="168" x2="430" y2="828" stroke="#b6ab98" stroke-width="3"/><line x1="690" y1="168" x2="690" y2="828" stroke="#b6ab98" stroke-width="3"/><line x1="950" y1="168" x2="950" y2="828" stroke="#b6ab98" stroke-width="3"/><line x1="1210" y1="168" x2="1210" y2="828" stroke="#b6ab98" stroke-width="3"/>
    <rect x="178" y="286" width="172" height="24" fill="#5e6852" opacity="0.28"/>
    <rect x="468" y="376" width="172" height="24" fill="#8f7a55" opacity="0.22"/>
    <rect x="992" y="556" width="190" height="24" fill="#5e6852" opacity="0.22"/>
  
  <line x1="990" y1="748" x2="1326" y2="492" stroke="#5e6852" stroke-width="12"/><circle cx="1098" cy="664" r="14" fill="#8f7a55"/><circle cx="1210" cy="580" r="14" fill="#8f7a55"/>
  
    <rect x="86" y="84" width="360" height="68" fill="#f3efe6" opacity="0.88"/>
    <text x="104" y="127" fill="#1f221e" font-size="24" font-family="Arial, sans-serif" letter-spacing="4">TABLE FRAME</text>
    <text x="104" y="914" fill="#58584e" font-size="21" font-family="Arial, sans-serif" letter-spacing="6">TRANSACTIONS</text>
  
</svg>
