<?xml version="1.0" encoding="UTF-8"?>
<svg width="1600" height="1000" viewBox="0 0 1600 1000" fill="none" xmlns="http://www.w3.org/2000/svg">
  <rect width="1600" height="1000" fill="#f5f7f7"/>
  <rect x="56" y="56" width="1488" height="888" rx="14" fill="#ffffff" stroke="#b8c7cf" stroke-width="8"/>
  <rect x="86" y="86" width="1428" height="828" fill="#ffffff" opacity="0.98"/><rect x="86" y="690" width="1428" height="140" fill="#dce4e8" opacity="0.42"/>
  
    <rect x="148" y="186" width="540" height="612" fill="#f5f7f7" stroke="#b8c7cf" stroke-width="4"/>
    <rect x="768" y="186" width="624" height="612" fill="#ffffff" stroke="#b8c7cf" stroke-width="4"/>
    <line x1="846" y1="706" x2="1320" y2="706" stroke="#b8c7cf" stroke-width="4"/>
    <line x1="846" y1="626" x2="1320" y2="626" stroke="#b8c7cf" stroke-width="3"/>
    <line x1="846" y1="546" x2="1320" y2="546" stroke="#b8c7cf" stroke-width="3"/>
    <path d="M860 676 L944 618 L1012 632 L1108 534 L1206 558 L1290 426" fill="none" stroke="#2456a6" stroke-width="14"/>
    <rect x="220" y="300" width="392" height="38" fill="#dce4e8" opacity="0.85"/>
    <rect x="220" y="368" width="340" height="22" fill="#dce4e8" opacity="0.6"/>
    <rect x="220" y="420" width="370" height="22" fill="#dce4e8" opacity="0.6"/>
  
  <rect x="126" y="126" width="168" height="24" fill="#2456a6" opacity="0.22"/>
  
    <rect x="86" y="84" width="360" height="68" fill="#f5f7f7" opacity="0.88"/>
    <text x="104" y="127" fill="#1a2128" font-size="24" font-family="Arial, sans-serif" letter-spacing="4">SERVICE GRAPHIC</text>
    <text x="104" y="914" fill="#5a6772" font-size="21" font-family="Arial, sans-serif" letter-spacing="6">SERVICES</text>
  
</svg>
