<?xml version="1.0" encoding="UTF-8"?>
<svg width="1600" height="1000" viewBox="0 0 1600 1000" fill="none" xmlns="http://www.w3.org/2000/svg">
  <rect width="1600" height="1000" fill="#f2f5f3"/>
  <rect x="56" y="56" width="1488" height="888" rx="14" fill="#ffffff" stroke="#b7cac0" stroke-width="8"/>
  <rect x="86" y="86" width="1428" height="828" rx="18" fill="#ffffff" opacity="0.98"/><rect x="86" y="86" width="1428" height="68" rx="18" fill="#dde7e1"/>
  
    <rect x="188" y="130" width="520" height="700" fill="#dde7e1" stroke="#b7cac0" stroke-width="4"/>
    <ellipse cx="448" cy="366" rx="138" ry="168" fill="#12734b" opacity="0.32"/>
    <rect x="812" y="180" width="520" height="520" fill="#f2f5f3" stroke="#b7cac0" stroke-width="4"/>
    <rect x="874" y="246" width="396" height="120" fill="#dde7e1" opacity="0.65"/>
    <rect x="874" y="410" width="396" height="28" fill="#dde7e1" opacity="0.85"/>
    <rect x="874" y="462" width="334" height="18" fill="#dde7e1" opacity="0.55"/>
    <rect x="874" y="506" width="366" height="18" fill="#dde7e1" opacity="0.55"/>
  
  <circle cx="236" cy="206" r="8" fill="#12734b"/><circle cx="266" cy="206" r="8" fill="#123d6b"/>
  
    <rect x="86" y="84" width="360" height="68" fill="#f2f5f3" opacity="0.88"/>
    <text x="104" y="127" fill="#14201c" font-size="24" font-family="Arial, sans-serif" letter-spacing="4">TEAM IMAGE</text>
    <text x="104" y="914" fill="#566760" font-size="21" font-family="Arial, sans-serif" letter-spacing="6">COMPANY</text>
  
</svg>
