<?xml version="1.0" encoding="UTF-8"?>
<svg width="1600" height="1000" viewBox="0 0 1600 1000" fill="none" xmlns="http://www.w3.org/2000/svg">
  <rect width="1600" height="1000" fill="#f2f5f3"/>
  <rect x="56" y="56" width="1488" height="888" rx="14" fill="#ffffff" stroke="#b7cac0" stroke-width="8"/>
  <rect x="86" y="86" width="1428" height="828" rx="18" fill="#ffffff" opacity="0.98"/><rect x="86" y="86" width="1428" height="68" rx="18" fill="#dde7e1"/>
  
    <rect x="142" y="170" width="1316" height="650" rx="24" fill="#ffffff" stroke="#b7cac0" stroke-width="6"/>
    <rect x="142" y="170" width="1316" height="72" rx="24" fill="#dde7e1"/>
    <rect x="214" y="310" width="260" height="424" fill="#f2f5f3" stroke="#b7cac0" stroke-width="4"/>
    <rect x="526" y="310" width="408" height="190" fill="#dde7e1" stroke="#b7cac0" stroke-width="4"/>
    <rect x="982" y="310" width="388" height="190" fill="#f2f5f3" stroke="#b7cac0" stroke-width="4"/>
    <rect x="526" y="548" width="844" height="186" fill="#ffffff" stroke="#b7cac0" stroke-width="4"/>
    <path d="M590 676 L704 590 L786 614 L894 516 L1000 552 L1142 442 L1280 490" fill="none" stroke="#12734b" stroke-width="14"/>
  
  <circle cx="236" cy="206" r="8" fill="#12734b"/><circle cx="266" cy="206" r="8" fill="#123d6b"/>
  
    <rect x="86" y="84" width="360" height="68" fill="#f2f5f3" opacity="0.88"/>
    <text x="104" y="127" fill="#14201c" font-size="24" font-family="Arial, sans-serif" letter-spacing="4">FEATURE UI 02</text>
    <text x="104" y="914" fill="#566760" font-size="21" font-family="Arial, sans-serif" letter-spacing="6">HOME</text>
  
</svg>
