<?xml version="1.0" encoding="UTF-8"?>
<svg width="1600" height="1000" viewBox="0 0 1600 1000" fill="none" xmlns="http://www.w3.org/2000/svg">
  <rect width="1600" height="1000" fill="#f3efe7"/>
  <rect x="56" y="56" width="1488" height="888" rx="14" fill="#fcf8f1" stroke="#b8ae9f" stroke-width="8"/>
  <rect x="86" y="86" width="1428" height="828" fill="#fcf8f1" opacity="0.98"/><rect x="780" y="110" width="640" height="90" fill="#e4dbce" opacity="0.65"/>
  
    <rect x="148" y="186" width="540" height="612" fill="#f3efe7" stroke="#b8ae9f" stroke-width="4"/>
    <rect x="768" y="186" width="624" height="612" fill="#fcf8f1" stroke="#b8ae9f" stroke-width="4"/>
    <line x1="846" y1="706" x2="1320" y2="706" stroke="#b8ae9f" stroke-width="4"/>
    <line x1="846" y1="626" x2="1320" y2="626" stroke="#b8ae9f" stroke-width="3"/>
    <line x1="846" y1="546" x2="1320" y2="546" stroke="#b8ae9f" stroke-width="3"/>
    <path d="M860 676 L944 618 L1012 632 L1108 534 L1206 558 L1290 426" fill="none" stroke="#8a3f34" stroke-width="14"/>
    <rect x="220" y="300" width="392" height="38" fill="#e4dbce" opacity="0.85"/>
    <rect x="220" y="368" width="340" height="22" fill="#e4dbce" opacity="0.6"/>
    <rect x="220" y="420" width="370" height="22" fill="#e4dbce" opacity="0.6"/>
  
  <rect x="860" y="724" width="440" height="18" fill="#8a3f34" opacity="0.22"/>
  
    <rect x="86" y="84" width="360" height="68" fill="#f3efe7" opacity="0.88"/>
    <text x="104" y="127" fill="#191816" font-size="24" font-family="Arial, sans-serif" letter-spacing="4">PROOF GRAPHIC</text>
    <text x="104" y="914" fill="#645d53" font-size="21" font-family="Arial, sans-serif" letter-spacing="6">HOME</text>
  
</svg>
