<?xml version="1.0" encoding="UTF-8"?>
<svg width="1600" height="1000" viewBox="0 0 1600 1000" fill="none" xmlns="http://www.w3.org/2000/svg">
  <rect width="1600" height="1000" fill="#f3f1ea"/>
  <rect x="56" y="56" width="1488" height="888" rx="14" fill="#fffdfa" stroke="#bab1a2" stroke-width="8"/>
  <rect x="86" y="86" width="1428" height="828" fill="#fffdfa" opacity="0.98"/><rect x="86" y="86" width="520" height="828" fill="#f3f1ea" opacity="0.78"/>
  
    <rect x="124" y="168" width="1350" height="660" fill="#fffdfa" stroke="#bab1a2" stroke-width="6"/>
    <rect x="124" y="168" width="1350" height="86" fill="#e3ded1" opacity="0.8"/>
    <line x1="124" y1="330" x2="1474" y2="330" stroke="#bab1a2" stroke-width="3"/><line x1="124" y1="420" x2="1474" y2="420" stroke="#bab1a2" stroke-width="3"/><line x1="124" y1="510" x2="1474" y2="510" stroke="#bab1a2" stroke-width="3"/><line x1="124" y1="600" x2="1474" y2="600" stroke="#bab1a2" stroke-width="3"/><line x1="124" y1="690" x2="1474" y2="690" stroke="#bab1a2" stroke-width="3"/>
    <line x1="430" y1="168" x2="430" y2="828" stroke="#bab1a2" stroke-width="3"/><line x1="690" y1="168" x2="690" y2="828" stroke="#bab1a2" stroke-width="3"/><line x1="950" y1="168" x2="950" y2="828" stroke="#bab1a2" stroke-width="3"/><line x1="1210" y1="168" x2="1210" y2="828" stroke="#bab1a2" stroke-width="3"/>
    <rect x="178" y="286" width="172" height="24" fill="#2d5b73" opacity="0.28"/>
    <rect x="468" y="376" width="172" height="24" fill="#8e6133" opacity="0.22"/>
    <rect x="992" y="556" width="190" height="24" fill="#2d5b73" opacity="0.22"/>
  
  <rect x="202" y="748" width="294" height="20" fill="#8e6133" opacity="0.22"/>
  
    <rect x="86" y="84" width="360" height="68" fill="#f3f1ea" opacity="0.88"/>
    <text x="104" y="127" fill="#181613" font-size="24" font-family="Arial, sans-serif" letter-spacing="4">COMPARISON TABLE</text>
    <text x="104" y="914" fill="#5d574f" font-size="21" font-family="Arial, sans-serif" letter-spacing="6">HOME</text>
  
</svg>
